<svg width="460" height="148" viewBox="0 0 460 148" fill="none" xmlns="http://www.w3.org/2000/svg">
<path d="M18.5552 118.939C18.5552 120.854 18.6846 122.64 18.9434 124.296C19.2021 125.901 19.6938 127.298 20.4185 128.489C21.1431 129.731 22.1006 130.688 23.291 131.361C24.5332 132.086 26.1377 132.448 28.1045 132.448C30.4854 132.448 32.8403 131.594 35.1694 129.886C37.5503 128.23 39.8018 126.16 41.9238 123.675C44.0977 121.139 46.1421 118.396 48.0571 115.446C50.0239 112.496 51.7837 109.778 53.3364 107.294C54.8892 104.758 56.2349 102.662 57.3735 101.005C58.5122 99.2974 59.3662 98.4434 59.9355 98.4434C60.1943 98.4434 60.5308 98.521 60.9448 98.6763C61.3589 98.7798 61.7212 98.9609 62.0317 99.2197C62.3423 99.4785 62.5493 99.8408 62.6528 100.307C62.7563 100.772 62.6528 101.316 62.3423 101.937C60.8413 104.887 59.1592 107.967 57.2959 111.176C55.4844 114.385 53.5176 117.542 51.3955 120.647C49.2734 123.701 47.022 126.625 44.6411 129.42C42.2603 132.215 39.7759 134.674 37.188 136.796C34.6001 138.918 31.9087 140.6 29.1138 141.842C26.3706 143.084 23.5498 143.706 20.6514 143.706C17.5459 143.706 14.7251 143.188 12.189 142.153C9.65283 141.118 7.479 139.539 5.66748 137.417C3.85596 135.295 2.4585 132.578 1.4751 129.265C0.491699 125.953 0 122.045 0 117.542C0 111.59 0.750488 105.457 2.25146 99.1421C3.75244 92.8276 5.82275 86.5132 8.4624 80.1987C11.1021 73.8325 14.1816 67.5957 17.7012 61.4883C21.2207 55.3809 24.999 49.6099 29.0361 44.1753C33.125 38.689 37.3433 33.6426 41.6909 29.0361C46.0903 24.4297 50.438 20.4443 54.7339 17.0801C59.0298 13.7158 63.1963 11.1021 67.2334 9.23877C71.2705 7.32373 74.9712 6.36621 78.3354 6.36621C80.9233 6.36621 83.0713 6.75439 84.7793 7.53076C86.4873 8.25537 87.833 9.21289 88.8164 10.4033C89.8516 11.5937 90.5503 12.9653 90.9126 14.5181C91.3267 16.019 91.5337 17.5459 91.5337 19.0986C91.5337 21.8418 91.1455 24.4038 90.3691 26.7847C89.6445 29.1138 88.687 31.2358 87.4966 33.1509C86.3062 35.0142 84.9863 36.6704 83.5371 38.1196C82.0879 39.5688 80.6646 40.7852 79.2671 41.7686C77.8696 42.752 76.5498 43.5024 75.3076 44.02C74.1172 44.4858 73.1855 44.7188 72.5127 44.7188C71.7881 44.7188 71.2705 44.6411 70.96 44.4858C70.7012 44.3306 70.5718 43.813 70.5718 42.9331C70.7788 41.3804 71.3481 39.8535 72.2798 38.3525C73.2114 36.7998 74.1948 35.1436 75.23 33.3838C76.2651 31.624 77.1709 29.6572 77.9473 27.4834C78.7754 25.3096 79.1895 22.8252 79.1895 20.0303C79.1895 19.3057 79.1118 18.5552 78.9565 17.7788C78.853 16.9507 78.646 16.2002 78.3354 15.5273C78.0767 14.8545 77.6885 14.311 77.1709 13.897C76.6533 13.4312 76.0063 13.1982 75.23 13.1982C73.0044 13.1982 70.4941 14.1558 67.6992 16.0708C64.9043 17.9858 61.9541 20.6514 58.8486 24.0674C55.7949 27.4316 52.6636 31.417 49.4546 36.0234C46.2974 40.5781 43.2178 45.521 40.2158 50.8521C37.2656 56.1831 34.4707 61.7988 31.8311 67.6992C29.1914 73.5479 26.8882 79.4224 24.9214 85.3228C22.9546 91.2231 21.4019 97.0459 20.2632 102.791C19.1245 108.484 18.5552 113.867 18.5552 118.939ZM116.455 46.2715C116.455 47.4102 116.119 48.7817 115.446 50.3862C114.773 51.939 113.893 53.4399 112.806 54.8892C111.771 56.2866 110.606 57.4771 109.312 58.4604C108.07 59.4438 106.854 59.9355 105.664 59.9355C104.059 59.9355 102.688 59.4438 101.549 58.4604C100.462 57.4771 99.9185 56.4419 99.9185 55.355C99.9185 54.8892 100.074 54.1904 100.384 53.2588C100.747 52.3271 101.187 51.3179 101.704 50.231C102.273 49.0923 102.92 47.9536 103.645 46.8149C104.421 45.6245 105.224 44.5635 106.052 43.6318C106.932 42.6484 107.786 41.8721 108.614 41.3027C109.494 40.6816 110.348 40.3711 111.176 40.3711C113.246 40.3711 114.644 40.8628 115.368 41.8462C116.093 42.8296 116.455 44.3047 116.455 46.2715ZM106.44 99.9961C104.628 104.085 102.636 107.837 100.462 111.253C98.3398 114.618 96.1401 117.516 93.8628 119.949C91.5854 122.33 89.2305 124.193 86.7979 125.539C84.417 126.884 82.062 127.557 79.7329 127.557C77.9731 127.557 76.4722 127.169 75.23 126.393C73.9878 125.668 72.9785 124.659 72.2021 123.365C71.374 122.071 70.7788 120.57 70.4165 118.862C70.0542 117.102 69.873 115.213 69.873 113.194C69.873 109.416 70.3906 105.689 71.4258 102.015C72.4609 98.2881 73.7808 94.665 75.3853 91.1455C77.0415 87.5742 78.9048 84.0806 80.9751 80.6646C83.0454 77.2485 85.1157 73.936 87.186 70.7271C87.6519 69.9507 88.2212 69.252 88.894 68.6309C89.5669 68.0098 90.2139 67.6992 90.835 67.6992C91.7148 67.6992 92.5947 67.8545 93.4746 68.165C94.3545 68.4756 95.1567 68.8896 95.8813 69.4072C96.606 69.873 97.1753 70.4165 97.5894 71.0376C98.0552 71.6069 98.2881 72.2021 98.2881 72.8232C98.2881 73.5479 97.8481 74.7383 96.9683 76.3945C96.0884 78.0508 94.9756 80.0435 93.6299 82.3726C92.2842 84.6499 90.835 87.186 89.2822 89.981C87.7812 92.7759 86.3579 95.6743 85.0122 98.6763C83.6665 101.678 82.5537 104.706 81.6738 107.76C80.7939 110.762 80.354 113.634 80.354 116.377C80.354 117.05 80.3799 117.723 80.4316 118.396C80.5352 119.017 80.7163 119.586 80.9751 120.104C81.2856 120.57 81.7256 120.958 82.2949 121.269C82.916 121.527 83.7441 121.657 84.7793 121.657C85.8662 121.657 87.2119 121.01 88.8164 119.716C90.4727 118.422 92.1807 116.714 93.9404 114.592C95.752 112.418 97.5376 109.985 99.2974 107.294C101.109 104.551 102.688 101.756 104.033 98.9092C104.447 98.0811 104.913 97.667 105.431 97.667C105.793 97.667 106.104 97.7705 106.362 97.9775C106.621 98.1846 106.75 98.4951 106.75 98.9092C106.75 99.2197 106.647 99.582 106.44 99.9961ZM162.727 99.9961C160.915 104.085 158.922 107.941 156.749 111.564C154.626 115.135 152.401 118.267 150.072 120.958C147.743 123.598 145.362 125.694 142.929 127.247C140.497 128.799 138.09 129.576 135.709 129.576C134.053 129.576 132.604 129.239 131.361 128.566C130.171 127.894 129.162 126.962 128.333 125.771C127.557 124.581 126.962 123.158 126.548 121.501C126.186 119.845 126.004 118.034 126.004 116.067C126.004 113.375 126.522 110.425 127.557 107.216C128.644 103.956 129.99 100.643 131.594 97.2788C133.25 93.9146 135.062 90.6021 137.029 87.3413C139.047 84.0806 140.988 81.0527 142.852 78.2578C141.558 79.1377 140.057 80.2505 138.349 81.5962C136.692 82.9419 134.933 84.417 133.069 86.0215C131.258 87.626 129.395 89.334 127.479 91.1455C125.564 92.9053 123.753 94.665 122.045 96.4248C120.337 98.1328 118.758 99.7891 117.309 101.394C115.86 102.998 114.669 104.447 113.738 105.741C110.891 109.623 108.562 113.117 106.75 116.222C104.939 119.328 103.516 121.864 102.48 123.831C101.756 125.28 101.031 126.263 100.307 126.781C99.582 127.298 98.8315 127.557 98.0552 127.557C97.3823 127.557 96.6836 127.35 95.959 126.936C95.2344 126.574 94.8721 125.875 94.8721 124.84C94.8721 124.219 95.1567 122.951 95.7261 121.036C96.2954 119.121 97.0718 116.843 98.0552 114.204C98.9868 111.512 100.074 108.562 101.316 105.353C102.506 102.144 103.774 98.9092 105.12 95.6484C106.414 92.3359 107.708 89.127 109.002 86.0215C110.296 82.8643 111.486 80.0435 112.573 77.5591C113.66 75.0747 114.592 73.0303 115.368 71.4258C116.145 69.7695 116.662 68.812 116.921 68.5532C117.594 67.8804 118.681 67.751 120.182 68.165C121.734 68.5791 123.261 69.2261 124.762 70.106C125.487 70.5718 126.03 71.0376 126.393 71.5034C126.807 71.9692 127.117 72.4092 127.324 72.8232C127.428 73.082 127.454 73.3149 127.402 73.522C127.35 73.729 127.272 73.9102 127.169 74.0654C127.014 74.2207 126.418 75.1523 125.383 76.8604C124.348 78.5166 123.08 80.6646 121.579 83.3042C120.078 85.8921 118.422 88.8164 116.61 92.0771C114.799 95.3379 113.065 98.6245 111.409 101.937C113.893 98.521 116.3 95.4673 118.629 92.7759C120.958 90.0845 123.028 87.7554 124.84 85.7886C126.91 83.563 128.903 81.5703 130.818 79.8105C136.356 74.9453 140.652 71.3223 143.706 68.9414C146.811 66.5605 149.192 65.3701 150.848 65.3701C151.521 65.3701 152.22 65.603 152.944 66.0688C153.721 66.4829 154.419 67.0522 155.041 67.7769C155.662 68.5015 156.179 69.3296 156.593 70.2612C157.007 71.1929 157.214 72.1504 157.214 73.1338C157.214 74.1172 156.749 75.4629 155.817 77.1709C154.885 78.8271 153.721 80.7939 152.323 83.0713C150.926 85.2969 149.399 87.7812 147.743 90.5244C146.086 93.2158 144.56 96.0625 143.162 99.0645C141.765 102.066 140.6 105.172 139.668 108.381C138.737 111.59 138.271 114.799 138.271 118.008C138.271 119.509 138.478 120.803 138.892 121.89C139.358 122.977 140.108 123.52 141.144 123.52C142.23 123.52 143.576 122.77 145.181 121.269C146.837 119.768 148.545 117.827 150.305 115.446C152.116 113.065 153.902 110.425 155.662 107.527C157.473 104.577 159.052 101.704 160.397 98.9092C160.812 98.0811 161.277 97.667 161.795 97.667C162.054 97.667 162.312 97.7705 162.571 97.9775C162.882 98.1328 163.037 98.4434 163.037 98.9092C163.037 99.2197 162.934 99.582 162.727 99.9961ZM204.029 99.9961C202.166 103.826 199.992 107.449 197.508 110.865C195.023 114.281 192.332 117.283 189.434 119.871C186.587 122.407 183.559 124.426 180.35 125.927C177.193 127.428 174.01 128.178 170.801 128.178C168.472 128.178 166.401 127.687 164.59 126.703C162.778 125.771 161.251 124.478 160.009 122.821C158.767 121.165 157.835 119.224 157.214 116.999C156.593 114.773 156.283 112.392 156.283 109.856C156.283 105.664 156.852 101.626 157.991 97.7446C159.129 93.8628 160.63 90.2397 162.494 86.8755C164.357 83.5112 166.479 80.4316 168.86 77.6367C171.241 74.8418 173.647 72.4609 176.08 70.4941C178.513 68.4756 180.868 66.9229 183.145 65.8359C185.474 64.749 187.493 64.2056 189.201 64.2056C190.495 64.2056 191.633 64.4644 192.617 64.9819C193.652 65.4995 194.506 66.1982 195.179 67.0781C195.852 67.9062 196.343 68.8379 196.654 69.873C197.016 70.9082 197.197 71.9434 197.197 72.9785C197.197 76.1357 196.369 79.4224 194.713 82.8384C193.057 86.2026 190.883 89.4116 188.191 92.4653C185.5 95.4673 182.472 98.1846 179.108 100.617C175.744 102.998 172.328 104.758 168.86 105.896C168.86 107.812 169.041 109.623 169.403 111.331C169.817 112.987 170.413 114.462 171.189 115.756C172.017 116.999 173.052 118.008 174.294 118.784C175.537 119.509 177.012 119.871 178.72 119.871C180.428 119.871 182.162 119.535 183.921 118.862C185.681 118.137 187.493 116.973 189.356 115.368C191.271 113.712 193.238 111.538 195.256 108.847C197.275 106.155 199.397 102.843 201.623 98.9092C202.14 98.0811 202.606 97.667 203.02 97.667C203.382 97.667 203.693 97.7705 203.952 97.9775C204.21 98.1846 204.34 98.4951 204.34 98.9092C204.34 99.2197 204.236 99.582 204.029 99.9961ZM186.716 73.1338C185.215 73.1338 183.533 74.0137 181.67 75.7734C179.858 77.5332 178.099 79.8105 176.391 82.6055C174.683 85.3486 173.13 88.4282 171.732 91.8442C170.387 95.2085 169.481 98.521 169.015 101.782C171.551 100.591 174.062 99.1162 176.546 97.3564C179.082 95.5449 181.333 93.5522 183.3 91.3784C185.319 89.2046 186.949 86.9014 188.191 84.4688C189.434 81.9844 190.055 79.4741 190.055 76.938C190.055 75.9028 189.77 75.0229 189.201 74.2983C188.631 73.522 187.803 73.1338 186.716 73.1338ZM296.029 19.7197C296.029 21.6865 295.692 23.8345 295.02 26.1636C294.398 28.4927 293.493 30.8218 292.302 33.1509C291.164 35.48 289.792 37.7314 288.188 39.9053C286.583 42.0273 284.849 43.9424 282.986 45.6504C281.123 47.3066 279.156 48.6523 277.085 49.6875C275.067 50.6709 273.022 51.1626 270.952 51.1626C270.383 51.1626 269.969 51.0332 269.71 50.7744C269.451 50.4639 269.322 50.1792 269.322 49.9204C269.322 49.2476 269.606 48.4712 270.176 47.5913C270.797 46.6597 271.547 45.5728 272.427 44.3306C273.359 43.0366 274.342 41.5615 275.377 39.9053C276.413 38.249 277.37 36.3599 278.25 34.2378C279.182 32.1157 279.932 29.7349 280.501 27.0952C281.123 24.4038 281.433 21.4277 281.433 18.167C281.433 16.3037 281.174 14.6992 280.657 13.3535C280.139 11.9561 279.44 10.8174 278.561 9.9375C277.732 9.00586 276.749 8.33301 275.61 7.91895C274.472 7.50488 273.281 7.29785 272.039 7.29785C268.985 7.29785 266.372 8.20361 264.198 10.0151C262.024 11.7749 260.057 14.3628 258.297 17.7788C256.589 21.1431 254.933 25.2578 253.329 30.123C251.724 34.9883 249.964 40.5264 248.049 46.7373C246.962 50.2568 245.772 54.1387 244.478 58.3828C243.236 62.627 241.812 67.0781 240.208 71.7363C238.655 76.3945 236.87 81.1821 234.851 86.0991C232.884 91.0161 230.633 95.8813 228.097 100.695C225.561 105.457 222.688 110.089 219.479 114.592C216.322 119.095 212.75 123.287 208.765 127.169C210.835 127.324 212.828 127.531 214.743 127.79C216.658 128.101 218.521 128.385 220.333 128.644C222.145 128.903 223.956 129.11 225.768 129.265C227.579 129.472 229.442 129.576 231.357 129.576C235.705 129.576 239.716 128.903 243.391 127.557C247.118 126.263 250.327 124.478 253.018 122.2C255.709 119.871 257.806 117.154 259.307 114.048C260.808 110.891 261.558 107.475 261.558 103.8C261.558 103.179 261.48 102.636 261.325 102.17C261.17 101.704 261.092 101.187 261.092 100.617C261.092 100.048 261.248 99.6597 261.558 99.4526C261.869 99.1938 262.179 99.0645 262.49 99.0645C263.991 99.0645 265.311 99.5562 266.449 100.54C267.64 101.471 268.623 102.636 269.399 104.033C270.228 105.431 270.849 106.906 271.263 108.458C271.677 110.011 271.884 111.383 271.884 112.573C271.884 115.627 271.185 118.914 269.788 122.433C268.39 125.901 266.242 129.11 263.344 132.06C260.445 135.01 256.745 137.443 252.242 139.358C247.739 141.325 242.356 142.308 236.093 142.308C231.642 142.308 227.631 142.075 224.06 141.609C220.54 141.144 217.331 140.548 214.433 139.824C211.534 139.099 208.895 138.297 206.514 137.417C204.133 136.589 201.907 135.787 199.837 135.01C196.68 137.443 193.781 139.461 191.142 141.066C188.502 142.67 186.095 143.938 183.921 144.87C181.748 145.802 179.807 146.449 178.099 146.811C176.339 147.225 174.786 147.432 173.44 147.432C171.681 147.432 170.231 147.251 169.093 146.889C167.954 146.578 167.048 146.164 166.375 145.646C165.703 145.129 165.237 144.534 164.978 143.861C164.667 143.24 164.512 142.619 164.512 141.998C164.512 139.875 165.289 137.909 166.841 136.097C168.394 134.286 170.646 132.681 173.596 131.284C176.546 129.938 180.169 128.877 184.465 128.101C188.761 127.324 193.626 126.91 199.061 126.858C201.027 123.96 202.917 120.777 204.728 117.309C206.54 113.841 208.222 110.296 209.774 106.673C211.379 103.05 212.854 99.4268 214.2 95.8037C215.597 92.1807 216.839 88.7646 217.926 85.5557C219.065 82.2949 220.074 79.3447 220.954 76.7051C221.834 74.0137 222.584 71.814 223.206 70.106C224.655 65.9653 226.311 61.3589 228.174 56.2866C230.038 51.2144 232.134 46.0903 234.463 40.9146C236.844 35.687 239.483 30.6147 242.382 25.6978C245.332 20.7808 248.593 16.4331 252.164 12.6548C255.787 8.82471 259.772 5.771 264.12 3.49365C268.468 1.16455 273.229 0 278.405 0C280.89 0 283.193 0.414062 285.315 1.24219C287.437 2.07031 289.3 3.3125 290.905 4.96875C292.509 6.625 293.751 8.69531 294.631 11.1797C295.563 13.6123 296.029 16.459 296.029 19.7197ZM179.651 140.755C182.291 140.755 184.801 140.083 187.182 138.737C189.511 137.391 191.763 135.502 193.937 133.069C191.763 132.448 189.434 132.138 186.949 132.138C185.552 132.138 184.232 132.293 182.99 132.604C181.748 132.914 180.661 133.328 179.729 133.846C178.797 134.363 178.047 134.984 177.478 135.709C176.908 136.434 176.624 137.21 176.624 138.038C176.624 138.763 176.882 139.384 177.4 139.901C177.917 140.471 178.668 140.755 179.651 140.755ZM340.282 99.9961C339.195 102.895 337.823 105.922 336.167 109.08C334.562 112.237 332.777 115.135 330.81 117.775C328.843 120.363 326.747 122.511 324.521 124.219C322.296 125.875 320.07 126.703 317.845 126.703C316.344 126.703 315.102 126.341 314.118 125.616C313.135 124.84 312.333 123.908 311.711 122.821C311.142 121.683 310.728 120.466 310.469 119.172C310.21 117.878 310.081 116.688 310.081 115.601C310.081 113.945 310.262 112.03 310.625 109.856C311.039 107.682 311.815 105.198 312.954 102.403C311.194 104.784 309.331 107.216 307.364 109.701C305.449 112.133 303.482 114.333 301.463 116.3C299.497 118.267 297.504 119.897 295.485 121.191C293.519 122.433 291.655 123.054 289.896 123.054C289.067 123.054 288.188 122.847 287.256 122.433C286.324 121.967 285.47 121.32 284.694 120.492C283.866 119.612 283.193 118.551 282.675 117.309C282.158 116.015 281.899 114.54 281.899 112.884C281.899 110.089 282.546 107.009 283.84 103.645C285.134 100.229 286.764 96.813 288.731 93.397C290.75 89.981 292.975 86.6685 295.408 83.4595C297.84 80.2505 300.195 77.4556 302.473 75.0747C304.543 72.8491 306.484 70.96 308.295 69.4072C310.159 67.8545 311.893 66.6123 313.497 65.6807C315.153 64.6973 316.706 63.9985 318.155 63.5845C319.604 63.1187 321.002 62.8599 322.348 62.8081C323.59 62.8081 324.625 62.9634 325.453 63.2739C326.281 63.5327 326.928 63.895 327.394 64.3608C327.86 64.8267 328.17 65.3701 328.326 65.9912C328.533 66.6123 328.636 67.2593 328.636 67.9321C328.636 68.6567 328.429 69.5884 328.015 70.7271C327.601 71.8657 327.032 73.0044 326.307 74.1431C325.583 75.2817 324.729 76.2651 323.745 77.0933C322.813 77.8696 321.804 78.2578 320.717 78.2578C320.303 78.2578 320.044 78.1025 319.941 77.792C319.837 77.4814 319.786 77.0933 319.786 76.6274C319.786 75.7476 319.889 74.7124 320.096 73.522C320.303 72.3315 320.407 71.2964 320.407 70.4165C320.407 69.6401 320.303 69.0967 320.096 68.7861C319.941 68.4238 319.579 68.2427 319.009 68.2427C317.664 68.812 316.214 69.9248 314.662 71.5811C313.161 73.1855 311.66 75.1006 310.159 77.3262C308.658 79.5 307.208 81.8809 305.811 84.4688C304.465 87.0049 303.249 89.541 302.162 92.0771C301.127 94.5615 300.299 96.9424 299.678 99.2197C299.057 101.445 298.746 103.309 298.746 104.81C298.746 105.896 298.901 106.75 299.212 107.372C299.522 107.993 299.911 108.303 300.376 108.303C300.739 108.303 301.308 107.967 302.084 107.294C302.861 106.621 303.741 105.741 304.724 104.654C305.759 103.567 306.82 102.351 307.907 101.005C308.994 99.6079 310.055 98.2363 311.09 96.8906C312.177 95.5449 313.161 94.2769 314.041 93.0864C314.92 91.896 315.619 90.9126 316.137 90.1362C317.482 88.1694 318.414 86.6426 318.932 85.5557C319.501 84.4688 320.096 83.9253 320.717 83.9253C320.976 83.9253 321.338 84.1323 321.804 84.5464C322.322 84.9604 322.813 85.4521 323.279 86.0215C323.797 86.5391 324.237 87.0825 324.599 87.6519C324.961 88.2212 325.143 88.6353 325.143 88.894C325.143 89.6187 324.806 90.6538 324.133 91.9995C323.46 93.2935 322.529 95.3896 321.338 98.2881C319.993 101.394 318.983 104.292 318.311 106.983C317.689 109.675 317.379 112.056 317.379 114.126C317.379 114.851 317.431 115.575 317.534 116.3C317.638 117.024 317.819 117.697 318.078 118.318C318.336 118.888 318.699 119.379 319.165 119.793C319.63 120.156 320.251 120.337 321.028 120.337C322.27 120.337 323.538 119.845 324.832 118.862C326.178 117.827 327.446 116.533 328.636 114.98C329.878 113.427 331.043 111.771 332.13 110.011C333.217 108.2 334.174 106.492 335.002 104.887C335.831 103.283 336.478 101.937 336.943 100.85C337.461 99.7114 337.771 99.0645 337.875 98.9092C338.289 98.0811 338.781 97.667 339.35 97.667C339.661 97.667 339.945 97.7705 340.204 97.9775C340.463 98.1846 340.592 98.4951 340.592 98.9092C340.592 99.2197 340.489 99.582 340.282 99.9961ZM380.498 34.4707C380.135 35.1436 379.514 36.3081 378.634 37.9644C377.806 39.5688 376.797 41.5356 375.606 43.8647C374.416 46.1938 373.096 48.8076 371.647 51.7061C370.198 54.5527 368.697 57.5547 367.144 60.7119C369.473 60.5566 371.569 60.4014 373.433 60.2461C375.348 60.0391 376.719 59.9355 377.547 59.9355C377.806 59.9355 377.987 60.0391 378.091 60.2461C378.246 60.4014 378.324 60.6084 378.324 60.8672C378.324 61.2812 378.194 61.7212 377.936 62.187C377.729 62.6528 377.547 63.0151 377.392 63.2739C376.771 64.2056 376.098 65.189 375.374 66.2241C374.701 67.2075 373.976 68.1392 373.2 69.019C372.423 69.8989 371.621 70.6494 370.793 71.2705C369.965 71.8916 369.085 72.2539 368.153 72.3574C366.497 72.668 364.271 72.668 361.477 72.3574C360.183 74.9971 358.915 77.6367 357.672 80.2764C356.482 82.8643 355.343 85.3486 354.256 87.7295C353.221 90.1104 352.264 92.3618 351.384 94.4839C350.556 96.5542 349.831 98.3916 349.21 99.9961C347.761 104.033 346.519 107.475 345.483 110.322C344.448 113.117 343.931 115.575 343.931 117.697C343.931 119.043 344.293 120.156 345.018 121.036C345.794 121.864 347.088 122.278 348.899 122.278C350.09 122.278 351.539 121.605 353.247 120.259C355.007 118.862 356.818 117.05 358.682 114.825C360.545 112.599 362.382 110.089 364.194 107.294C366.005 104.499 367.584 101.704 368.93 98.9092C369.344 98.0811 369.81 97.667 370.327 97.667C370.689 97.667 371 97.7705 371.259 97.9775C371.518 98.1846 371.647 98.4951 371.647 98.9092C371.647 99.2197 371.543 99.582 371.336 99.9961C369.473 104.085 367.429 107.941 365.203 111.564C362.978 115.135 360.674 118.267 358.293 120.958C355.913 123.598 353.48 125.694 350.996 127.247C348.563 128.799 346.156 129.576 343.775 129.576C340.411 129.576 338.004 128.644 336.555 126.781C335.054 124.917 334.304 122.2 334.304 118.629C334.304 116.041 334.588 113.246 335.158 110.244C335.675 107.242 336.529 103.852 337.72 100.074C338.91 96.2954 340.489 92.0254 342.456 87.2637C344.422 82.502 346.829 77.0415 349.676 70.8823C348.485 70.6235 347.347 70.3906 346.26 70.1836C345.173 69.9766 344.189 69.7437 343.31 69.4849C342.688 69.3296 342.197 69.2261 341.834 69.1743C341.472 69.1226 341.291 68.9673 341.291 68.7085C341.291 68.1392 341.446 67.6216 341.757 67.1558C342.119 66.6899 342.585 66.1465 343.154 65.5254C343.413 65.1113 343.724 64.6196 344.086 64.0503C344.5 63.481 344.992 63.1187 345.561 62.9634C345.975 62.8599 346.933 62.7046 348.434 62.4976C349.986 62.2905 351.901 62.0317 354.179 61.7212C356.353 57.2183 358.708 52.4307 361.244 47.3584C363.78 42.2344 366.601 36.6704 369.706 30.6665C370.275 29.5796 370.871 28.5444 371.492 27.561C372.113 26.5259 372.734 25.6201 373.355 24.8438C373.976 24.0674 374.571 23.4463 375.141 22.9805C375.762 22.5146 376.331 22.2817 376.849 22.2817C377.47 22.2817 378.065 22.5923 378.634 23.2134C379.204 23.7827 379.669 24.5073 380.032 25.3872C380.446 26.2671 380.756 27.1987 380.963 28.1821C381.222 29.1138 381.352 29.9419 381.352 30.6665C381.352 31.6499 381.274 32.4263 381.119 32.9956C380.963 33.5132 380.756 34.0049 380.498 34.4707ZM412.717 46.2715C412.717 47.4102 412.38 48.7817 411.708 50.3862C411.035 51.939 410.155 53.4399 409.068 54.8892C408.033 56.2866 406.868 57.4771 405.574 58.4604C404.332 59.4438 403.116 59.9355 401.925 59.9355C400.321 59.9355 398.949 59.4438 397.811 58.4604C396.724 57.4771 396.18 56.4419 396.18 55.355C396.18 54.8892 396.335 54.1904 396.646 53.2588C397.008 52.3271 397.448 51.3179 397.966 50.231C398.535 49.0923 399.182 47.9536 399.907 46.8149C400.683 45.6245 401.485 44.5635 402.313 43.6318C403.193 42.6484 404.047 41.8721 404.875 41.3027C405.755 40.6816 406.609 40.3711 407.438 40.3711C409.508 40.3711 410.905 40.8628 411.63 41.8462C412.354 42.8296 412.717 44.3047 412.717 46.2715ZM402.702 99.9961C400.89 104.085 398.897 107.837 396.724 111.253C394.602 114.618 392.402 117.516 390.125 119.949C387.847 122.33 385.492 124.193 383.06 125.539C380.679 126.884 378.324 127.557 375.995 127.557C374.235 127.557 372.734 127.169 371.492 126.393C370.25 125.668 369.24 124.659 368.464 123.365C367.636 122.071 367.041 120.57 366.678 118.862C366.316 117.102 366.135 115.213 366.135 113.194C366.135 109.416 366.652 105.689 367.688 102.015C368.723 98.2881 370.042 94.665 371.647 91.1455C373.303 87.5742 375.167 84.0806 377.237 80.6646C379.307 77.2485 381.377 73.936 383.448 70.7271C383.914 69.9507 384.483 69.252 385.156 68.6309C385.829 68.0098 386.476 67.6992 387.097 67.6992C387.977 67.6992 388.856 67.8545 389.736 68.165C390.616 68.4756 391.418 68.8896 392.143 69.4072C392.868 69.873 393.437 70.4165 393.851 71.0376C394.317 71.6069 394.55 72.2021 394.55 72.8232C394.55 73.5479 394.11 74.7383 393.23 76.3945C392.35 78.0508 391.237 80.0435 389.892 82.3726C388.546 84.6499 387.097 87.186 385.544 89.981C384.043 92.7759 382.62 95.6743 381.274 98.6763C379.928 101.678 378.815 104.706 377.936 107.76C377.056 110.762 376.616 113.634 376.616 116.377C376.616 117.05 376.642 117.723 376.693 118.396C376.797 119.017 376.978 119.586 377.237 120.104C377.547 120.57 377.987 120.958 378.557 121.269C379.178 121.527 380.006 121.657 381.041 121.657C382.128 121.657 383.474 121.01 385.078 119.716C386.734 118.422 388.442 116.714 390.202 114.592C392.014 112.418 393.799 109.985 395.559 107.294C397.371 104.551 398.949 101.756 400.295 98.9092C400.709 98.0811 401.175 97.667 401.692 97.667C402.055 97.667 402.365 97.7705 402.624 97.9775C402.883 98.1846 403.012 98.4951 403.012 98.9092C403.012 99.2197 402.909 99.582 402.702 99.9961ZM458.988 99.9961C457.177 104.085 455.184 107.941 453.01 111.564C450.888 115.135 448.663 118.267 446.333 120.958C444.004 123.598 441.624 125.694 439.191 127.247C436.758 128.799 434.352 129.576 431.971 129.576C430.314 129.576 428.865 129.239 427.623 128.566C426.433 127.894 425.423 126.962 424.595 125.771C423.819 124.581 423.224 123.158 422.81 121.501C422.447 119.845 422.266 118.034 422.266 116.067C422.266 113.375 422.784 110.425 423.819 107.216C424.906 103.956 426.251 100.643 427.856 97.2788C429.512 93.9146 431.324 90.6021 433.291 87.3413C435.309 84.0806 437.25 81.0527 439.113 78.2578C437.819 79.1377 436.318 80.2505 434.61 81.5962C432.954 82.9419 431.194 84.417 429.331 86.0215C427.52 87.626 425.656 89.334 423.741 91.1455C421.826 92.9053 420.015 94.665 418.307 96.4248C416.599 98.1328 415.02 99.7891 413.571 101.394C412.122 102.998 410.931 104.447 410 105.741C407.153 109.623 404.824 113.117 403.012 116.222C401.201 119.328 399.777 121.864 398.742 123.831C398.018 125.28 397.293 126.263 396.568 126.781C395.844 127.298 395.093 127.557 394.317 127.557C393.644 127.557 392.945 127.35 392.221 126.936C391.496 126.574 391.134 125.875 391.134 124.84C391.134 124.219 391.418 122.951 391.988 121.036C392.557 119.121 393.333 116.843 394.317 114.204C395.249 111.512 396.335 108.562 397.578 105.353C398.768 102.144 400.036 98.9092 401.382 95.6484C402.676 92.3359 403.97 89.127 405.264 86.0215C406.558 82.8643 407.748 80.0435 408.835 77.5591C409.922 75.0747 410.854 73.0303 411.63 71.4258C412.406 69.7695 412.924 68.812 413.183 68.5532C413.855 67.8804 414.942 67.751 416.443 68.165C417.996 68.5791 419.523 69.2261 421.024 70.106C421.749 70.5718 422.292 71.0376 422.654 71.5034C423.068 71.9692 423.379 72.4092 423.586 72.8232C423.689 73.082 423.715 73.3149 423.664 73.522C423.612 73.729 423.534 73.9102 423.431 74.0654C423.275 74.2207 422.68 75.1523 421.645 76.8604C420.61 78.5166 419.342 80.6646 417.841 83.3042C416.34 85.8921 414.684 88.8164 412.872 92.0771C411.061 95.3379 409.327 98.6245 407.67 101.937C410.155 98.521 412.562 95.4673 414.891 92.7759C417.22 90.0845 419.29 87.7554 421.102 85.7886C423.172 83.563 425.165 81.5703 427.08 79.8105C432.618 74.9453 436.914 71.3223 439.967 68.9414C443.073 66.5605 445.454 65.3701 447.11 65.3701C447.783 65.3701 448.481 65.603 449.206 66.0688C449.982 66.4829 450.681 67.0522 451.302 67.7769C451.923 68.5015 452.441 69.3296 452.855 70.2612C453.269 71.1929 453.476 72.1504 453.476 73.1338C453.476 74.1172 453.01 75.4629 452.079 77.1709C451.147 78.8271 449.982 80.7939 448.585 83.0713C447.188 85.2969 445.661 87.7812 444.004 90.5244C442.348 93.2158 440.821 96.0625 439.424 99.0645C438.026 102.066 436.862 105.172 435.93 108.381C434.999 111.59 434.533 114.799 434.533 118.008C434.533 119.509 434.74 120.803 435.154 121.89C435.62 122.977 436.37 123.52 437.405 123.52C438.492 123.52 439.838 122.77 441.442 121.269C443.099 119.768 444.807 117.827 446.566 115.446C448.378 113.065 450.164 110.425 451.923 107.527C453.735 104.577 455.313 101.704 456.659 98.9092C457.073 98.0811 457.539 97.667 458.057 97.667C458.315 97.667 458.574 97.7705 458.833 97.9775C459.144 98.1328 459.299 98.4434 459.299 98.9092C459.299 99.2197 459.195 99.582 458.988 99.9961Z" fill="#009FB1"/>
</svg>
